<?xml version="1.0" encoding="UTF-8"?>
<!DOCTYPE svg PUBLIC "-//W3C//DTD SVG 1.1//EN" "http://www.w3.org/Graphics/SVG/1.1/DTD/svg11.dtd">
<!-- Creator: CorelDRAW X7 -->
<svg xmlns="http://www.w3.org/2000/svg" xml:space="preserve" width="20in" height="20in" version="1.1" style="shape-rendering:geometricPrecision; text-rendering:geometricPrecision; image-rendering:optimizeQuality; fill-rule:evenodd; clip-rule:evenodd"
viewBox="0 0 20000 20000"
 xmlns:xlink="http://www.w3.org/1999/xlink">
 <defs>
  <style type="text/css">
   <![CDATA[
    .fil0 {fill:none}
    .fil3 {fill:white}
    .fil2 {fill:#99FF99;fill-rule:nonzero}
    .fil1 {fill:url(#id0);fill-rule:nonzero}
   ]]>
  </style>
  <linearGradient id="id0" gradientUnits="userSpaceOnUse" x1="787.78" y1="12936.9" x2="9298.06" y2="7063.04">
   <stop offset="0" style="stop-opacity:1; stop-color:#00CCFF"/>
   <stop offset="1" style="stop-opacity:1; stop-color:#99FF99"/>
  </linearGradient>
 </defs>
 <g id="Layer_x0020_1">
  <metadata id="CorelCorpID_0Corel-Layer"/>
  <rect class="fil0" width="20000" height="20000"/>
  <g id="_573444792">
   <path class="fil1" d="M8210 8810c176,4 294,59 358,162 21,40 35,83 44,131 3,17 4,37 4,57l3 28 0 217 1189 0 0 -196c0,-529 -185,-939 -555,-1235 -300,-238 -645,-358 -1036,-358l-7939 0 0 4768 1192 0 0 -3574 6740 0zm1598 2187c0,-529 -185,-941 -555,-1234 -300,-238 -645,-358 -1036,-358l-6235 0 681 1193 5547 -3c176,7 294,63 358,166 21,37 35,80 44,130 3,18 4,38 4,59l3 23 0 219 -6637 0 681 1192 7145 0 0 -1387z"/>
   <g>
    <path class="fil2" d="M11576 8410c79,-39 134,-114 134,-222 0,-161 -128,-258 -357,-258l-448 0 0 997 476 0c252,0 382,-98 382,-269 0,-133 -74,-217 -187,-248zm-236 -365c145,0 228,54 228,160 0,105 -83,159 -228,159l-292 0 0 -319 292 0zm36 767l-328 0 0 -332 328 0c158,0 243,51 243,166 0,116 -85,166 -243,166z"/>
    <polygon id="1" class="fil2" points="12124,8803 12124,8481 12624,8481 12624,8360 12124,8360 12124,8054 12685,8054 12685,7930 11981,7930 11981,8927 12705,8927 12705,8803 "/>
    <polygon id="2" class="fil2" points="13076,8803 13076,8481 13576,8481 13576,8360 13076,8360 13076,8054 13637,8054 13637,7930 12933,7930 12933,8927 13657,8927 13657,8803 "/>
    <polygon id="3" class="fil2" points="14083,8927 14224,8927 14224,8054 14566,8054 14566,7930 13741,7930 13741,8054 14083,8054 "/>
    <g>
     <path class="fil3" d="M11765 10800l0 481c397,0 1226,43 1565,-39 513,-125 653,-419 775,-829 129,-430 509,-646 965,-646 564,0 1006,-96 1370,257 288,279 201,669 826,777 326,56 1192,-18 1588,20 586,58 568,703 -13,753 -224,19 -1584,-10 -1621,5l-212 261c-74,83 -166,140 -249,222 619,19 1267,0 1889,1 543,0 1058,-202 1074,-829 15,-589 -427,-902 -1010,-902 -316,0 -631,0 -947,0 -396,0 -549,57 -690,-268 -179,-410 -551,-720 -1116,-774 -280,-27 -649,-11 -937,-9 -299,2 -553,64 -772,186 -197,110 -360,277 -473,473 -135,231 -124,529 -276,687 -191,199 -440,173 -773,173 -321,0 -642,0 -963,0z"/>
     <path class="fil3" d="M10996 12063l479 0 6 -2291c153,-21 1296,-11 1584,-5 227,4 269,56 418,137 36,-120 189,-312 250,-383 -379,-287 -698,-240 -1245,-240 -496,0 -992,1 -1487,0l-5 2782z"/>
     <path class="fil3" d="M13785 11362c108,240 394,490 669,601 342,137 772,100 1162,100 432,0 713,-46 1005,-258 182,-132 454,-419 507,-747 -166,-29 -331,-130 -432,-203 -52,145 -56,223 -138,343 -260,378 -616,380 -1038,380 -287,0 -635,28 -888,-67 -195,-73 -428,-275 -473,-478 -77,52 -108,121 -183,181 -57,46 -135,99 -191,148z"/>
     <path class="fil3" d="M17398 9775c71,-46 1896,-21 2147,-20l-1 -466 -1939 0c-86,0 -212,14 -282,11 -110,-9 -304,54 -370,117 60,58 107,103 170,180 52,63 88,133 145,208l130 -30z"/>
     <path class="fil3" d="M17398 9775l2156 -4 7 -489c-107,-19 -942,-7 -1122,-7 -147,0 -1067,-25 -1116,25 70,3 196,-11 282,-11l1939 0 1 466c-251,-1 -2076,-26 -2147,20z"/>
    </g>
   </g>
  </g>
 </g>
</svg>
