<svg width="537" height="106" viewBox="0 0 537 106" fill="none" xmlns="http://www.w3.org/2000/svg">
    <g clip-path="url(#clip0_2_52)">
        <path d="M132.417 105V1.32501H219.272C230.002 1.32501 238.315 4.03167 244.212 9.445C250.205 14.8583 253.202 23.075 253.202 34.095C253.202 45.115 250.205 53.3317 244.212 58.745C238.315 64.1583 230.002 66.865 219.272 66.865H155.617V105H132.417ZM216.517 20.175H155.617V47.87L216.517 48.015C220.77 48.015 224.009 46.9517 226.232 44.825C228.552 42.6983 229.712 39.1217 229.712 34.095C229.712 28.9717 228.552 25.395 226.232 23.365C224.009 21.2383 220.77 20.175 216.517 20.175ZM319.583 105.725C301.12 105.725 286.813 101.327 276.663 92.53C266.513 83.6367 261.438 70.49 261.438 53.09C261.438 35.7867 266.513 22.7367 276.663 13.94C286.813 5.04667 301.458 0.600006 320.598 0.600006H346.698C365.838 0.600006 380.483 5.04667 390.633 13.94C400.783 22.7367 405.858 35.7867 405.858 53.09C405.858 70.49 400.783 83.6367 390.633 92.53C380.483 101.327 366.08 105.725 347.423 105.725H319.583ZM322.193 19.45C311.463 19.45 303.102 21.3833 297.108 25.25C291.115 29.1167 287.345 35.255 285.798 43.665H381.498C379.952 35.255 376.182 29.1167 370.188 25.25C364.195 21.3833 355.833 19.45 345.103 19.45H322.193ZM322.628 86.875H345.103C355.93 86.875 364.292 84.9417 370.188 81.075C376.182 77.2083 379.952 71.0217 381.498 62.515H285.798C287.345 71.0217 291.115 77.2083 297.108 81.075C303.102 84.9417 311.608 86.875 322.628 86.875ZM416.567 105.725V86.875L499.942 87.02C504.195 87.02 507.433 86.0533 509.657 84.12C511.977 82.09 513.137 78.8517 513.137 74.405C513.137 69.9583 511.977 66.7683 509.657 64.835C507.433 62.805 504.195 61.79 499.942 61.79H448.032C437.302 61.79 428.94 59.2283 422.947 54.105C417.05 48.885 414.102 41.2483 414.102 31.195C414.102 21.1417 417.05 13.5533 422.947 8.43001C428.94 3.21001 437.302 0.600006 448.032 0.600006H529.522V19.45L450.497 19.305C446.34 19.305 443.102 20.2717 440.782 22.205C438.462 24.0417 437.302 27.0383 437.302 31.195C437.302 35.3517 438.462 38.3967 440.782 40.33C443.102 42.1667 446.34 43.085 450.497 43.085H502.407C513.137 43.085 521.45 45.7433 527.347 51.06C533.34 56.28 536.337 64.0617 536.337 74.405C536.337 84.6517 533.34 92.4333 527.347 97.75C521.45 103.067 513.137 105.725 502.407 105.725H416.567Z"
              fill="#604BE8"/>
    </g>
    <g clip-path="url(#clip1_2_52)">
        <mask id="mask0_2_52" style="mask-type:luminance" maskUnits="userSpaceOnUse" x="-100" y="60" width="279"
              height="74">
            <path d="M178.919 60.5H-99.8043V134H178.919V60.5Z" fill="white"/>
        </mask>
        <g mask="url(#mask0_2_52)">
            <path fill-rule="evenodd" clip-rule="evenodd"
                  d="M65.9723 127.293C65.9723 127.448 65.9125 127.585 65.7902 127.7C65.6678 127.817 65.5257 127.875 65.3665 127.875H63.9122C63.7503 127.875 63.6103 127.817 63.488 127.7C63.3662 127.585 63.3064 127.448 63.3064 127.293V117.723C63.3064 116.348 63.0295 115.369 62.4757 114.787C61.9172 114.205 61.1167 113.915 60.0663 113.915C58.5324 113.915 57.1359 114.185 55.8862 114.729V127.293C55.8862 127.448 55.8243 127.585 55.702 127.7C55.5823 127.817 55.4376 127.875 55.2804 127.875H53.7939C53.632 127.875 53.4946 127.817 53.3848 127.7C53.2728 127.585 53.2203 127.448 53.2203 127.293V106.584C53.2203 106.428 53.2728 106.292 53.3848 106.177C53.4946 106.06 53.632 106 53.7939 106H55.3101C55.4724 106 55.6093 106.06 55.7171 106.177C55.8316 106.292 55.8862 106.428 55.8862 106.584V112.576C57.3181 111.975 58.8645 111.676 60.5181 111.676C62.2165 111.676 63.5458 112.169 64.5181 113.158C65.4883 114.147 65.9723 115.668 65.9723 117.723V127.293Z"
                  fill="#604BE8"/>
            <path fill-rule="evenodd" clip-rule="evenodd"
                  d="M106.961 127.293C106.961 127.448 106.907 127.585 106.805 127.7C106.7 127.817 106.568 127.875 106.401 127.875H104.786C104.64 127.875 104.512 127.817 104.397 127.7C104.285 127.585 104.228 127.448 104.228 127.293V106.555C104.228 106.186 104.413 106 104.786 106H106.401C106.568 106 106.7 106.057 106.805 106.163C106.907 106.27 106.961 106.4 106.961 106.555V127.293Z"
                  fill="#604BE8"/>
            <path fill-rule="evenodd" clip-rule="evenodd"
                  d="M28.2563 89.7245V88.8383C28.2563 84.4358 25.5273 82.2298 20.0842 82.2298H11.751V96.5356C12.1079 96.5356 12.9556 96.5713 14.2916 96.6404C15.6226 96.7119 16.6538 96.7428 17.3775 96.7428C21.0212 96.7428 23.7427 96.2426 25.5496 95.2348C27.3516 94.2343 28.2563 92.3927 28.2563 89.7245ZM28.0382 72.2431V71.4116C28.0382 69.0889 27.1261 67.5022 25.3067 66.6518C23.4824 65.8036 20.751 65.3772 17.1049 65.3772C16.5645 65.3772 14.7799 65.4296 11.751 65.5344V78.4347H20.0842C25.3861 78.4347 28.0382 76.3716 28.0382 72.2431ZM33.1814 89.7245C33.1814 97.074 27.9118 100.75 17.3775 100.75C13.5505 100.75 10.6133 100.593 8.55356 100.283C7.36132 100.145 6.76645 99.5016 6.76645 98.3581V63.7144C6.76645 62.5375 7.34643 61.8919 8.49901 61.7894C10.8835 61.5131 13.7463 61.3749 17.1049 61.3749C27.6763 61.3749 32.9633 64.7197 32.9633 71.4116V72.2431C32.9633 74.1513 32.4576 75.8165 31.4488 77.2388C30.44 78.6587 29.0123 79.7188 27.1732 80.412C29.047 81.0362 30.5169 82.094 31.5852 83.5853C32.646 85.0766 33.1814 86.8276 33.1814 88.8383V89.7245Z"
                  fill="#604BE8"/>
            <path fill-rule="evenodd" clip-rule="evenodd"
                  d="M59.5963 99.7612C59.5963 100.178 59.4168 100.419 59.0477 100.493C57.3088 100.664 53.7668 100.75 48.4314 100.75C44.5451 100.75 41.639 99.99 39.7134 98.4605C37.7877 96.9358 36.8249 94.4725 36.8249 91.0753V71.0471C36.8249 67.6499 37.7877 65.1866 39.7134 63.6619C41.639 62.1349 44.5451 61.3749 48.4314 61.3749C53.2229 61.3749 56.7602 61.4774 59.0477 61.687C59.4168 61.7537 59.5963 61.9967 59.5963 62.4136V65.0151C59.5963 65.4296 59.3944 65.6393 58.9952 65.6393H48.4862C45.7224 65.6393 43.9165 66.0204 43.0659 66.7828C42.2078 67.5451 41.7812 68.9674 41.7812 71.0471V78.2775H58.5064C58.7979 78.2775 59.0477 78.3823 59.2669 78.5919C59.4839 78.7992 59.5963 79.0422 59.5963 79.3209V81.2959C59.5963 81.5722 59.4839 81.8176 59.2669 82.0273C59.0477 82.2321 58.7979 82.337 58.5064 82.337H41.7812V91.0753C41.7812 93.1575 42.2078 94.5773 43.0659 95.342C43.9165 96.1044 45.7224 96.4856 48.4862 96.4856H58.9952C59.3944 96.4856 59.5963 96.6952 59.5963 97.1121V99.7612Z"
                  fill="#604BE8"/>
            <path fill-rule="evenodd" clip-rule="evenodd"
                  d="M65.0615 99.7612C65.0615 100.178 65.241 100.419 65.6101 100.493C67.349 100.664 70.891 100.75 76.2265 100.75C80.1125 100.75 83.0163 99.99 84.9442 98.4605C86.8675 96.9358 87.833 94.4725 87.833 91.0753V71.0471C87.833 67.6499 86.8675 65.1866 84.9442 63.6619C83.0163 62.1349 80.1125 61.3749 76.2265 61.3749C71.4349 61.3749 67.8976 61.4774 65.6101 61.687C65.241 61.7537 65.0615 61.9967 65.0615 62.4136V65.0151C65.0615 65.4296 65.2634 65.6393 65.6626 65.6393H76.1714C78.9352 65.6393 80.7413 66.0204 81.5918 66.7828C82.4501 67.5451 82.8763 68.9674 82.8763 71.0471V78.2775H66.1514C65.8573 78.2775 65.6101 78.3823 65.3909 78.5919C65.1739 78.7992 65.0615 79.0422 65.0615 79.3209V81.2959C65.0615 81.5722 65.1739 81.8176 65.3909 82.0273C65.6101 82.2321 65.8573 82.337 66.1514 82.337H82.8763V91.0753C82.8763 93.1575 82.4501 94.5773 81.5918 95.342C80.7413 96.1044 78.9352 96.4856 76.1714 96.4856H65.6626C65.2634 96.4856 65.0615 96.6952 65.0615 97.1121V99.7612Z"
                  fill="#604BE8"/>
            <path fill-rule="evenodd" clip-rule="evenodd"
                  d="M119.713 64.661C119.713 65.2265 119.368 65.5105 118.681 65.5105H108.094V99.6893C108.094 99.9733 107.999 100.218 107.82 100.432C107.639 100.643 107.405 100.75 107.114 100.75H104.128C103.874 100.75 103.65 100.643 103.449 100.432C103.247 100.218 103.153 99.9733 103.153 99.6893V65.5105H92.5632C91.8371 65.5105 91.4764 65.2265 91.4764 64.661V62.3287C91.4764 62.0836 91.5857 61.8627 91.8023 61.6686C92.0209 61.4744 92.2723 61.3749 92.5632 61.3749H118.681C119.368 61.3749 119.713 61.6928 119.713 62.3287V64.661Z"
                  fill="#604BE8"/>
        </g>
    </g>
    <defs>
        <clipPath id="clip0_2_52">
            <rect width="405" height="106" fill="white" transform="translate(132)"/>
        </clipPath>
        <clipPath id="clip1_2_52">
            <rect width="127" height="50" fill="white" transform="translate(0 56)"/>
        </clipPath>
    </defs>
</svg>
