<svg xmlns="http://www.w3.org/2000/svg" fill="none" height="200" width="200">
    <rect fill="url(#a)" rx="80" height="160" width="160" y="20" x="20" opacity=".2"></rect>
    <path stroke-linecap="round" stroke-miterlimit="10" stroke-width="2" stroke="#136EF6"
          d="M150 100a49.99 49.99 0 0 1-8.427 27.778 49.996 49.996 0 0 1-51.328 21.261 49.995 49.995 0 0 1-39.284-39.284A50.001 50.001 0 0 1 100 50M113.334 51.8a50.095 50.095 0 0 1 34.872 34.867"></path>
    <path stroke-linecap="round" stroke-miterlimit="10" stroke-width="2" stroke="#fff"
          d="M86.667 134.165a36.78 36.78 0 0 1-20.833-20.833M63.334 99.999a36.666 36.666 0 1 1 36.667 36.666"></path>
    <path stroke-linecap="round" stroke-miterlimit="10" stroke-width="2" stroke="#136EF6"
          d="M123.333 100.001a23.337 23.337 0 0 1-14.404 21.557A23.325 23.325 0 0 1 83.5 116.5a23.33 23.33 0 0 1-5.058-25.428A23.333 23.333 0 0 1 100 76.668"></path>
    <path stroke-linecap="round" stroke-miterlimit="10" stroke-width="2" stroke="#fff"
          d="M90 100a10 10 0 1 1 10 10"></path>
    <path fill="#fff" d="M100.001 101.665a1.666 1.666 0 1 0 0-3.332 1.666 1.666 0 0 0 0 3.332Z"></path>
    <defs>
        <linearGradient gradientUnits="userSpaceOnUse" y2="120.201" x2="-17.92" y1="185.333" x1="149.015" id="a">
            <stop stop-color="#604BE8"></stop>
            <stop stop-color="#604BE8" offset=".966"></stop>
        </linearGradient>
    </defs>
</svg>